{"title":"The Raven 2012.R5.XviD.[CAM.AUDIO]-WDR","uid":7412802,"size":787710710,"categoryP":"video","categoryS":"movies","magnet":"?xt=urn:btih:8e472428633059ec70e6cfddd8539ceeb0d7b4e1&amp;dn=The+Raven+2012.R5.XviD.%5BCAM.AUDIO%5D-WDR&amp;tr=udp%3A%2F%2Ftracker.openbittorrent.com%3A80&amp;tr=udp%3A%2F%2Fopen.demonii.com%3A1337&amp;tr=udp%3A%2F%2Ftracker.coppersurfer.tk%3A6969&amp;tr=udp%3A%2F%2Fexodus.desync.com%3A6969","seeders":0,"leechers":0,"uploader":"ArkLum","files":-1,"time":1341426065,"description":"Format: AVI\nFormat/Info: Audio Video Interleave\nFile size: 751 MiB\nDuration: 1h 46mn\nOverall bit rate: 991 Kbps\nWriting application: VirtualDubMod 1.5.10.2 (build 2540/release)\nWriting library: Boilsoft AVI tool build 1/release\n\nVideo\nID: 0\nFormat: MPEG-4 Visual\nFormat profile: Advanced Simple@L5\nFormat settings, BVOP: Yes\nFormat settings, QPel: No\nFormat settings, GMC: No warppoints\nFormat settings, Matrix: Custom\nCodec ID: XVID\nCodec ID/Hint: XviD\nDuration: 1h 46mn\nBit rate: 787 Kbps\nWidth: 624 pixels\nHeight: 256 pixels\nDisplay aspect ratio: 2.40:1\nFrame rate: 25.000 fps\nColor space: YUV\nChroma subsampling: 4:2:0\nBit depth: 8 bits\nScan type: Progressive\nBits/(Pixel*Frame): 0.197\nStream size: 597 MiB (79%)\nWriting library: XviD 1.2.1 (UTC 2008-12-04)\n\nAudio\nID: 1\nFormat: MPEG Audio\nFormat version: Version 1\nFormat profile: Layer 3\nMode: Joint stereo\nMode extension: MS Stereo\nCodec ID: 55\nCodec ID/Hint: MP3\nDuration: 1h 45mn\nBit rate mode: Constant\nBit rate: 32.0 Kbps\nChannel(s): 2 channels\nSampling rate: 48.0 KHz\nStream size: 145 MiB (19%)\nAlignment: Aligned on interleaves\nInterleave, duration: 24 ms (0.60 video frame)\nInterleave, preload duration: 84 ms\nWriting library: LAME3.98.4","torrent":{"xt":"urn:btih:8e472428633059ec70e6cfddd8539ceeb0d7b4e1","amp;dn":"The+Raven+2012.R5.XviD.%5BCAM.AUDIO%5D-WDR","amp;tr":["udp%3A%2F%2Ftracker.openbittorrent.com%3A80","udp%3A%2F%2Fopen.demonii.com%3A1337","udp%3A%2F%2Ftracker.coppersurfer.tk%3A6969","udp%3A%2F%2Fexodus.desync.com%3A6969"],"infoHash":"8e472428633059ec70e6cfddd8539ceeb0d7b4e1","infoHashBuffer":{"type":"Buffer","data":[142,71,36,40,99,48,89,236,112,230,207,221,216,83,156,238,176,215,180,225]},"announce":[],"urlList":[]}}